<svg xmlns="http://www.w3.org/2000/svg" id="single-color" viewBox="0 0 100 83">
  <title>paylax-logo-shield-single-color</title>
  <path d="M40.64,3.12" fill="#fff" stroke="#2f6cb3" stroke-miterlimit="10" stroke-width="5"/>
  <path d="M40.64,78.41" fill="#fff" stroke="#2f6cb3" stroke-miterlimit="10" stroke-width="5"/>
  <path d="M74.28,40.77" fill="#fff" stroke="#2f6cb3" stroke-miterlimit="10" stroke-width="5"/>
  <path d="M7,40.77" fill="#fff" stroke="#2f6cb3" stroke-miterlimit="10" stroke-width="5"/>
  <path
    d="M40.64,3.12C29.88,11.19,13.75,16.57,3,16.57-.43,41.86,14.08,69.9,40.64,78.41c26.88-8.65,40-37.46,37.64-61.84C67.53,16.57,51.4,11.19,40.64,3.12Z"
    fill="#000040" stroke="#000040" stroke-linecap="square" stroke-miterlimit="10" stroke-width="5"/>
  <path
    d="M42.1,35.75a11.69,11.69,0,0,1,3.22,22.93,11.89,11.89,0,0,1-3.23.46,11.69,11.69,0,0,1-3.22-22.93,11.51,11.51,0,0,1,3.23-.46m0-4.55a15.85,15.85,0,0,0-4.48.64,16.19,16.19,0,1,0,4.48-.64Z"
    fill="#fff"/>
  <path
    d="M40.07,21.27a19.11,19.11,0,1,1-5.26.75,18.84,18.84,0,0,1,5.26-.75m0-4.54a23.62,23.62,0,0,0,0,47.24A23.63,23.63,0,0,0,62.76,33.84,23.62,23.62,0,0,0,40.07,16.73Z"
    fill="#fff"/>
  <path
    d="M38.85,16.9v4.55A14.69,14.69,0,0,1,52.91,32.06,14.65,14.65,0,0,1,38.83,50.74,14.69,14.69,0,0,1,24.77,40.13,14.65,14.65,0,0,1,38.85,21.45V16.9m0,0A19.19,19.19,0,1,0,57.29,30.8,19.11,19.11,0,0,0,38.85,16.9Z"
    fill="#fff"/>
</svg>
